<?xml version="1.0" standalone="no"?>
<!DOCTYPE svg PUBLIC "-//W3C//DTD SVG 20010904//EN"
 "http://www.w3.org/TR/2001/REC-SVG-20010904/DTD/svg10.dtd">
<svg version="1.0" xmlns="http://www.w3.org/2000/svg"
 width="1024.000000pt" height="1024.000000pt" viewBox="0 0 1024.000000 1024.000000"
 preserveAspectRatio="xMidYMid meet">
<metadata>
Created by potrace 1.14, written by Peter Selinger 2001-2017
</metadata>
<g transform="translate(0.000000,1024.000000) scale(0.100000,-0.100000)"
fill="#000000" stroke="none">
<path d="M0 5120 l0 -5120 5120 0 5120 0 0 5120 0 5120 -5120 0 -5120 0 0
-5120z m4870 3266 c910 -3 1741 -6 1845 -7 l190 0 31 -47 c56 -86 271 -346
346 -419 78 -76 203 -179 339 -278 203 -147 313 -200 489 -237 36 -7 286 -13
730 -17 l675 -6 0 -57 c0 -65 -8 -77 -35 -60 -15 9 -308 12 -1271 12 l-1252 0
7 -50 c4 -28 9 -57 12 -65 5 -13 152 -15 1193 -15 l1186 -1 -32 -28 -31 -29
-764 -1 c-420 -1 -922 -1 -1115 -1 -346 0 -353 0 -353 -20 0 -12 7 -20 18 -21
9 0 504 0 1100 1 609 1 1082 -3 1082 -7 0 -5 -6 -17 -12 -26 -12 -16 -272 -17
-4213 -17 -3937 0 -4201 1 -4213 17 -6 9 -12 21 -12 26 0 4 470 8 1078 7 592
-1 1087 -1 1100 -1 15 1 22 7 22 21 0 20 -7 20 -1022 20 -1262 0 -1212 -1
-1246 33 l-27 27 1183 0 1183 0 15 35 c7 19 14 48 14 65 l0 30 -1258 0 c-989
0 -1261 -3 -1270 -12 -20 -20 -33 9 -30 67 l3 50 670 2 c369 1 735 2 815 2
l146 1 129 97 c233 173 611 568 768 801 66 98 89 122 114 117 10 -2 763 -6
1673 -9z m238 -1576 l4122 0 0 -21 c0 -19 4 -21 40 -16 22 3 50 3 62 -1 l21
-5 -6 -441 c-4 -243 -7 -647 -7 -898 l0 -458 -105 0 c-58 0 -105 -4 -105 -9 0
-16 -54 -20 -130 -9 -41 5 -362 13 -712 16 -350 4 -639 10 -642 13 -3 3 1 43
9 90 9 46 29 172 45 279 16 107 36 231 45 275 24 128 46 115 -194 115 l-210 0
2 313 c1 203 5 315 12 319 5 4 27 5 48 1 l38 -6 -3 53 -3 53 -2405 1 -2405 1
-3 -29 c-2 -15 -1 -39 2 -52 6 -21 11 -24 49 -22 l42 3 3 -306 2 -306 -25 -11
c-14 -7 -53 -12 -87 -12 -44 0 -59 -3 -55 -12 2 -7 23 -76 45 -153 23 -77 60
-203 83 -280 62 -213 62 -212 31 -267 l-27 -47 -650 -7 c-597 -7 -1125 -7
-1132 0 -6 5 -12 1773 -7 1803 6 33 28 45 69 37 11 -2 1875 -4 4143 -4z m2136
-429 c3 -5 6 -201 6 -437 l0 -429 -43 -110 c-90 -224 -229 -560 -236 -567 -4
-5 -17 133 -29 305 -13 171 -28 376 -34 455 l-11 142 -189 0 c-142 0 -190 -3
-193 -12 -2 -7 -36 -200 -75 -428 -40 -228 -91 -530 -116 -670 -24 -140 -44
-263 -44 -273 0 -16 11 -17 133 -15 l132 3 51 305 c87 520 108 639 111 636 4
-4 26 -308 48 -656 9 -135 18 -255 21 -267 4 -22 9 -23 108 -23 l104 0 49 118
c27 64 83 197 123 294 41 98 75 176 77 175 8 -8 2 -497 -6 -532 -7 -26 -6 -43
1 -52 8 -10 20 -395 18 -610 0 -19 5 -23 33 -23 61 0 59 -11 55 324 l-3 306
86 0 c58 0 90 4 96 13 5 6 28 117 52 246 23 129 44 238 47 243 10 16 1317 2
1651 -18 91 -5 101 -8 94 -22 -27 -54 -41 -139 -26 -162 15 -23 7 -2347 -7
-2381 l-12 -26 -275 -5 c-152 -2 -400 -1 -551 3 -151 4 -816 11 -1477 15
l-1203 7 0 33 c0 60 -5 64 -81 64 l-69 0 0 385 c0 372 1 385 19 385 29 0 34
-79 30 -440 l-4 -315 50 0 50 0 3 377 2 377 38 3 37 3 0 50 0 50 -197 3 -198
2 0 -54 c0 -60 6 -66 71 -66 l39 0 0 -740 0 -741 108 3 107 3 3 251 2 252 698
-5 c383 -2 702 -6 709 -8 8 -3 12 -63 12 -222 0 -120 1 -246 1 -280 l0 -63 35
0 c19 0 36 1 37 3 1 1 4 126 7 277 l6 275 50 6 c54 7 1937 0 1944 -7 8 -7 9
-48 2 -60 -3 -5 -51 -50 -106 -99 -55 -48 -159 -145 -230 -214 -72 -69 -163
-154 -202 -188 l-72 -61 -98 -6 c-54 -4 -165 -11 -248 -17 -82 -6 -193 -10
-245 -10 -197 3 -1050 40 -1061 46 -3 3 -127 7 -275 10 -148 3 -334 10 -414
15 -80 5 -674 10 -1320 10 -932 1 -1231 -2 -1445 -15 -148 -8 -326 -15 -395
-15 -68 0 -185 -4 -260 -10 -317 -23 -965 -41 -1120 -32 -88 5 -162 5 -172 0
-23 -11 -132 25 -178 60 -19 14 -105 94 -190 178 -85 83 -202 193 -260 244
-118 105 -118 106 -115 140 l2 25 199 7 c109 4 217 5 239 3 22 -3 341 -7 710
-11 369 -3 673 -8 678 -11 4 -2 7 -125 7 -274 l0 -269 40 0 40 0 0 280 c0 216
3 282 13 285 6 2 326 6 710 8 l697 5 0 -254 0 -255 108 3 107 3 3 738 2 737
43 0 c60 0 69 9 65 66 l-3 49 -185 2 c-102 2 -190 0 -197 -5 -13 -8 -16 -23
-14 -69 1 -31 3 -33 36 -33 l35 0 2 -377 3 -378 53 -3 52 -3 0 381 0 381 23
-3 22 -3 1 -382 2 -382 -72 -3 -71 -3 -3 -43 c-2 -24 -9 -45 -15 -47 -7 -2
-579 -6 -1272 -9 -693 -3 -1438 -9 -1655 -12 l-395 -7 -11 29 c-20 50 -39 416
-39 734 0 168 4 642 8 1053 7 584 6 751 -3 762 -11 13 -6 15 31 16 24 0 55 2
69 4 62 9 1064 27 1327 23 287 -3 291 -3 281 -23 -6 -11 -73 -118 -150 -237
-76 -120 -141 -225 -144 -233 -6 -14 13 -15 152 -13 l158 3 52 88 c74 128 80
132 77 49 -1 -37 -4 -223 -6 -414 -3 -381 -7 -358 59 -358 l34 0 2 308 c1 169
1 393 0 497 l-2 190 34 54 34 54 41 -174 c23 -96 47 -201 54 -234 l14 -60 154
0 154 1 -3 26 c-1 15 -20 67 -42 116 -22 50 -49 130 -59 179 -36 165 -81 398
-81 417 0 17 164 283 334 540 36 55 66 104 66 108 0 4 -70 8 -155 8 l-154 0
-102 -180 c-56 -99 -105 -180 -109 -180 -9 0 -98 220 -119 295 -13 48 -21 61
-39 63 l-22 3 0 319 c0 245 3 319 13 323 22 9 4406 7 4411 -2z m131 -1188
c-26 -143 -33 -159 -34 -83 -1 44 6 82 21 122 12 31 24 55 26 53 2 -2 -4 -43
-13 -92z m-1755 -3818 l0 -55 -585 0 -585 0 0 55 0 55 585 0 585 0 0 -55z m77
-188 c59 -30 70 -42 47 -51 -25 -10 -1423 -6 -1429 3 -6 11 16 30 69 55 43 21
55 21 652 20 l609 -1 52 -26z m127 -169 c5 -9 7 -21 2 -25 -10 -10 -1554 -11
-1579 -1 -15 6 -16 11 -5 28 13 20 19 20 792 18 721 -3 780 -4 790 -20z m85
-129 c27 -6 58 -20 70 -33 l22 -23 -48 -7 c-26 -4 -120 -13 -208 -21 -231 -21
-1168 -21 -1423 0 -228 19 -297 32 -175 34 85 1 121 17 109 47 -5 12 119 14
800 14 515 0 823 -4 853 -11z"/>
<path d="M2522 6754 c-20 -14 -11 -99 12 -123 15 -15 208 -16 2484 -18 2674
-2 2521 -5 2536 50 12 45 7 89 -11 93 -10 3 -1140 6 -2512 7 -1794 1 -2498 -1
-2509 -9z"/>
<path d="M5980 5751 c-69 -8 -78 -13 -73 -48 3 -16 -10 -107 -27 -203 -17 -96
-47 -267 -66 -380 -73 -435 -103 -503 -229 -518 -56 -6 -96 10 -119 49 -37 63
-32 118 48 586 42 242 79 455 82 472 l7 31 -151 0 c-147 0 -150 0 -155 -22 -4
-13 -31 -169 -62 -348 -31 -179 -60 -341 -65 -360 -17 -65 -40 -239 -40 -302
1 -125 37 -215 117 -293 75 -73 167 -105 305 -105 80 0 111 5 182 29 104 35
132 57 185 141 79 124 102 186 158 412 75 305 185 840 174 851 -10 10 -198 16
-271 8z"/>
<path d="M3766 5732 c-3 -5 -23 -114 -45 -243 -42 -246 -107 -613 -166 -939
-19 -107 -31 -198 -26 -203 4 -4 66 -6 137 -5 l129 3 27 170 c16 94 50 309 78
479 28 170 51 311 53 313 2 1 9 -84 15 -190 35 -550 43 -676 48 -724 l5 -53
105 0 105 0 16 38 c8 20 28 65 44 99 16 34 38 86 50 115 11 29 31 75 43 103
13 27 74 173 136 324 63 151 115 270 117 265 2 -5 -35 -216 -81 -469 -46 -253
-81 -464 -76 -468 8 -9 275 -6 284 4 6 5 105 486 137 664 10 55 27 143 39 195
20 90 45 236 71 417 10 66 9 85 -1 98 -10 13 -45 15 -215 15 l-203 0 -10 -27
c-6 -16 -31 -77 -57 -138 -25 -60 -64 -155 -86 -210 -23 -55 -50 -120 -61
-145 -21 -45 -87 -201 -135 -317 -14 -35 -28 -63 -32 -63 -4 0 -13 80 -19 178
-7 97 -21 294 -32 437 -11 143 -20 266 -20 273 0 9 -44 12 -184 12 -102 0
-187 -4 -190 -8z"/>
<path d="M2728 3003 c1 -324 4 -594 7 -600 3 -8 22 -13 49 -13 l45 0 3 544 c2
299 7 548 11 553 11 11 4373 11 4384 0 9 -9 12 -221 13 -754 l0 -343 43 0 44
0 6 523 c3 287 5 556 4 597 l-2 75 -2305 3 -2305 2 3 -587z"/>
<path d="M4917 3245 c-32 -7 -61 -16 -65 -19 -4 -4 4 -16 18 -27 65 -52 159
-70 241 -45 52 16 117 61 105 73 -11 11 -140 32 -191 32 -27 -1 -76 -7 -108
-14z"/>
<path d="M4752 3174 c-32 -22 -70 -61 -82 -84 -6 -12 -10 -273 -10 -759 l0
-741 149 0 148 0 7 218 c6 193 21 814 28 1167 l3 130 -42 6 c-25 3 -64 20 -96
42 -60 41 -73 44 -105 21z"/>
<path d="M5214 3155 c-27 -20 -66 -38 -86 -41 -21 -4 -44 -12 -53 -18 -16 -12
-14 43 -41 -1193 l-7 -313 191 0 192 0 0 743 c0 681 -1 745 -17 767 -34 48
-87 90 -113 90 -9 0 -39 -16 -66 -35z"/>
</g>
</svg>
